<svg width="61" height="60" viewBox="0 0 61 60" fill="none" xmlns="http://www.w3.org/2000/svg">
<path d="M12.9609 28.5674C12.9608 28.2324 13.027 27.9008 13.1555 27.5915C13.284 27.2821 13.4723 27.0012 13.7097 26.7649C13.9471 26.5286 14.2288 26.3415 14.5387 26.2144C14.8486 26.0873 15.1806 26.0227 15.5155 26.0242L19.7508 26.0381C20.4261 26.0381 21.0737 26.3064 21.5512 26.7839C22.0288 27.2614 22.297 27.909 22.297 28.5843V44.5995C22.7741 44.4581 23.386 44.3074 24.0563 44.1501C24.5217 44.0406 24.9365 43.7771 25.2334 43.4023C25.5303 43.0275 25.6919 42.5634 25.6921 42.0853V22.2199C25.692 21.5445 25.9602 20.8968 26.4377 20.4191C26.9153 19.9415 27.5629 19.6731 28.2383 19.673H32.4822C33.1575 19.6732 33.8052 19.9416 34.2827 20.4192C34.7602 20.8968 35.0284 21.5445 35.0284 22.2199V40.6577C35.0284 40.6577 36.0904 40.2275 37.1257 39.7907C37.5101 39.6281 37.8382 39.3558 38.0689 39.008C38.2997 38.6602 38.4229 38.2521 38.4232 37.8347V15.8532C38.4232 15.5188 38.489 15.1877 38.617 14.8788C38.7449 14.5699 38.9324 14.2892 39.1688 14.0528C39.4052 13.8164 39.6859 13.6288 39.9948 13.5008C40.3036 13.3728 40.6347 13.307 40.9691 13.3069H45.2129C45.8882 13.3069 46.5359 13.5752 47.0135 14.0527C47.491 14.5302 47.7593 15.1779 47.7594 15.8532V33.9538C51.4385 31.2874 55.1673 28.0803 58.1263 24.2241C58.5556 23.6643 58.8397 23.007 58.9532 22.3108C59.0667 21.6145 59.0061 20.901 58.7768 20.2339C56.7747 14.399 53.0192 9.32503 48.0238 5.70563C43.0285 2.08622 37.0371 0.0980928 30.8689 0.0130948C14.236 -0.210342 0.489721 13.3672 0.491355 30.0022C0.475023 35.266 1.84888 40.4409 4.47399 45.0034C4.83602 45.6275 5.36862 46.1353 6.00922 46.4671C6.64983 46.799 7.37184 46.9412 8.09044 46.8769C8.8933 46.8062 9.89284 46.7064 11.0811 46.5669C11.5983 46.508 12.0758 46.261 12.4226 45.8729C12.7694 45.4847 12.9614 44.9825 12.9619 44.462V28.5674" fill="black"/>
<path d="M12.8686 54.2519C17.3418 57.5061 22.628 59.4593 28.1424 59.8957C33.6568 60.332 39.1845 59.2343 44.1138 56.7241C49.043 54.2139 53.1818 50.389 56.0723 45.6726C58.9627 40.9562 60.4921 35.5321 60.4912 30.0005C60.4912 29.31 60.4591 28.6272 60.413 27.9481C49.4572 44.2872 29.2287 51.9267 12.8684 54.2525" fill="black"/>
</svg>
