<svg width="640" height="121" viewBox="0 0 640 121" fill="none" xmlns="http://www.w3.org/2000/svg">
<path d="M56.4 30.6C61.824 30.6 65.928 32.016 68.712 34.848C71.544 37.632 72.96 41.736 72.96 47.16V64.44C72.96 69.864 71.544 73.992 68.712 76.824C65.928 79.608 61.824 81 56.4 81H28.32V30.6H56.4ZM60 47.16C60 42.84 57.84 40.68 53.52 40.68H41.28V70.92H53.52C57.84 70.92 60 68.76 60 64.44V47.16ZM118.3 70.2C118.3 73.8 117.268 76.632 115.204 78.696C113.188 80.712 110.38 81.72 106.78 81.72H90.2203C86.6203 81.72 83.7883 80.712 81.7243 78.696C79.7083 76.632 78.7003 73.8 78.7003 70.2V53.64C78.7003 50.04 79.7083 47.232 81.7243 45.216C83.7883 43.152 86.6203 42.12 90.2203 42.12H106.78C110.38 42.12 113.188 43.152 115.204 45.216C117.268 47.232 118.3 50.04 118.3 53.64V70.2ZM105.7 54.72C105.7 52.8 104.74 51.84 102.82 51.84H94.1803C92.2603 51.84 91.3003 52.8 91.3003 54.72V69.12C91.3003 71.04 92.2603 72 94.1803 72H102.82C104.74 72 105.7 71.04 105.7 69.12V54.72ZM150.332 42.12C154.22 42.12 157.22 43.56 159.332 46.44C161.54 44.952 163.916 43.872 166.46 43.2C169.052 42.48 171.356 42.12 173.372 42.12H174.092C177.356 42.12 179.972 43.104 181.94 45.072C183.908 47.04 184.892 49.656 184.892 52.92V81H172.292V55.08C172.292 54.36 172.052 53.76 171.572 53.28C171.092 52.8 170.492 52.56 169.772 52.56H169.412C167.252 52.56 164.492 53.04 161.132 54V81H148.532V55.08C148.532 54.36 148.292 53.76 147.812 53.28C147.332 52.8 146.732 52.56 146.012 52.56H145.652C143.492 52.56 140.732 53.04 137.372 54V81H124.772V42.84H135.932L136.652 46.44C138.908 44.952 141.212 43.872 143.564 43.2C145.964 42.48 147.98 42.12 149.612 42.12H150.332ZM207.198 44.28V81H194.598V54H189.198V44.28H207.198ZM194.598 29.88H207.198V39.96H194.598V29.88ZM235.66 52.56C233.116 52.56 230.236 53.04 227.02 54V81H214.42V42.84H225.58L226.3 46.44C228.556 44.952 230.86 43.872 233.212 43.2C235.612 42.48 237.628 42.12 239.26 42.12H242.5C245.764 42.12 248.38 43.104 250.348 45.072C252.316 47.04 253.3 49.656 253.3 52.92V81H240.7V55.08C240.7 54.36 240.46 53.76 239.98 53.28C239.5 52.8 238.9 52.56 238.18 52.56H235.66ZM275.612 44.28V81H263.012V54H257.612V44.28H275.612ZM263.012 29.88H275.612V39.96H263.012V29.88ZM316.674 80.28C307.698 81.24 299.778 81.72 292.914 81.72C289.65 81.72 287.034 80.736 285.066 78.768C283.098 76.8 282.114 74.184 282.114 70.92V54.36C282.114 50.76 283.122 47.952 285.138 45.936C287.202 43.872 290.034 42.84 293.634 42.84H316.674V52.56H297.594C295.674 52.56 294.714 53.52 294.714 55.44V69.48C294.714 70.2 294.954 70.8 295.434 71.28C295.914 71.76 296.514 72 297.234 72C301.554 72 308.034 71.64 316.674 70.92V80.28ZM387.926 52.92L377.846 70.92H367.766L357.686 52.92V81H344.726V30.6H358.406L372.806 57.24L387.206 30.6H400.886V81H387.926V52.92ZM423.954 71.64C426.498 71.64 429.378 71.16 432.594 70.2V65.88H422.154C421.434 65.88 420.834 66.12 420.354 66.6C419.874 67.08 419.634 67.68 419.634 68.4V69.12C419.634 69.84 419.874 70.44 420.354 70.92C420.834 71.4 421.434 71.64 422.154 71.64H423.954ZM410.634 43.56C419.418 42.6 427.338 42.12 434.394 42.12C437.658 42.12 440.274 43.104 442.242 45.072C444.21 47.04 445.194 49.656 445.194 52.92V81H434.034L433.314 77.4C431.058 78.888 428.73 79.992 426.33 80.712C423.978 81.384 421.986 81.72 420.354 81.72H417.834C414.57 81.72 411.954 80.736 409.986 78.768C408.018 76.8 407.034 74.184 407.034 70.92V67.68C407.034 64.416 408.018 61.8 409.986 59.832C411.954 57.864 414.57 56.88 417.834 56.88H432.594V54C432.594 53.28 432.354 52.68 431.874 52.2C431.394 51.72 430.794 51.48 430.074 51.48C426.954 51.48 423.498 51.624 419.706 51.912C415.962 52.2 412.938 52.416 410.634 52.56V43.56ZM485.135 52.56L465.335 71.28H485.135V81H449.495V71.28L469.295 52.56H449.495V42.84H485.135V52.56ZM523.666 52.56L503.866 71.28H523.666V81H488.026V71.28L507.826 52.56H488.026V42.84H523.666V52.56ZM567.597 70.2C567.597 73.8 566.565 76.632 564.501 78.696C562.485 80.712 559.677 81.72 556.077 81.72H539.517C535.917 81.72 533.085 80.712 531.021 78.696C529.005 76.632 527.997 73.8 527.997 70.2V53.64C527.997 50.04 529.005 47.232 531.021 45.216C533.085 43.152 535.917 42.12 539.517 42.12H556.077C559.677 42.12 562.485 43.152 564.501 45.216C566.565 47.232 567.597 50.04 567.597 53.64V70.2ZM554.997 54.72C554.997 52.8 554.037 51.84 552.117 51.84H543.477C541.557 51.84 540.597 52.8 540.597 54.72V69.12C540.597 71.04 541.557 72 543.477 72H552.117C554.037 72 554.997 71.04 554.997 69.12V54.72ZM593.509 81C590.293 81.48 587.221 81.72 584.293 81.72C581.413 81.72 578.989 80.736 577.021 78.768C575.053 76.8 574.069 74.184 574.069 70.92V30.6H586.669V69.12C586.669 69.84 586.909 70.44 587.389 70.92C587.869 71.4 588.469 71.64 589.189 71.64H593.509V81ZM613.658 71.64C616.202 71.64 619.082 71.16 622.298 70.2V65.88H611.858C611.138 65.88 610.538 66.12 610.058 66.6C609.578 67.08 609.338 67.68 609.338 68.4V69.12C609.338 69.84 609.578 70.44 610.058 70.92C610.538 71.4 611.138 71.64 611.858 71.64H613.658ZM600.338 43.56C609.122 42.6 617.042 42.12 624.098 42.12C627.362 42.12 629.978 43.104 631.945 45.072C633.914 47.04 634.898 49.656 634.898 52.92V81H623.738L623.018 77.4C620.762 78.888 618.434 79.992 616.034 80.712C613.682 81.384 611.69 81.72 610.058 81.72H607.538C604.274 81.72 601.658 80.736 599.689 78.768C597.722 76.8 596.738 74.184 596.738 70.92V67.68C596.738 64.416 597.722 61.8 599.689 59.832C601.658 57.864 604.274 56.88 607.538 56.88H622.298V54C622.298 53.28 622.058 52.68 621.578 52.2C621.098 51.72 620.498 51.48 619.778 51.48C616.658 51.48 613.202 51.624 609.41 51.912C605.666 52.2 602.642 52.416 600.338 52.56V43.56Z" fill="#2A4365"/>
</svg>
