<svg width="640" height="121" viewBox="0 0 640 121" fill="none" xmlns="http://www.w3.org/2000/svg">
<path d="M51.4 30.6C56.824 30.6 60.928 32.016 63.712 34.848C66.544 37.632 67.96 41.736 67.96 47.16V64.44C67.96 69.864 66.544 73.992 63.712 76.824C60.928 79.608 56.824 81 51.4 81H23.32V30.6H51.4ZM55 47.16C55 42.84 52.84 40.68 48.52 40.68H36.28V70.92H48.52C52.84 70.92 55 68.76 55 64.44V47.16ZM113.3 70.2C113.3 73.8 112.268 76.632 110.204 78.696C108.188 80.712 105.38 81.72 101.78 81.72H85.2203C81.6203 81.72 78.7883 80.712 76.7243 78.696C74.7083 76.632 73.7003 73.8 73.7003 70.2V53.64C73.7003 50.04 74.7083 47.232 76.7243 45.216C78.7883 43.152 81.6203 42.12 85.2203 42.12H101.78C105.38 42.12 108.188 43.152 110.204 45.216C112.268 47.232 113.3 50.04 113.3 53.64V70.2ZM100.7 54.72C100.7 52.8 99.7403 51.84 97.8203 51.84H89.1803C87.2603 51.84 86.3003 52.8 86.3003 54.72V69.12C86.3003 71.04 87.2603 72 89.1803 72H97.8203C99.7403 72 100.7 71.04 100.7 69.12V54.72ZM145.332 42.12C149.22 42.12 152.22 43.56 154.332 46.44C156.54 44.952 158.916 43.872 161.46 43.2C164.052 42.48 166.356 42.12 168.372 42.12H169.092C172.356 42.12 174.972 43.104 176.94 45.072C178.908 47.04 179.892 49.656 179.892 52.92V81H167.292V55.08C167.292 54.36 167.052 53.76 166.572 53.28C166.092 52.8 165.492 52.56 164.772 52.56H164.412C162.252 52.56 159.492 53.04 156.132 54V81H143.532V55.08C143.532 54.36 143.292 53.76 142.812 53.28C142.332 52.8 141.732 52.56 141.012 52.56H140.652C138.492 52.56 135.732 53.04 132.372 54V81H119.772V42.84H130.932L131.652 46.44C133.908 44.952 136.212 43.872 138.564 43.2C140.964 42.48 142.98 42.12 144.612 42.12H145.332ZM230.278 52.92L220.198 70.92H210.118L200.038 52.92V81H187.078V30.6H200.758L215.158 57.24L229.558 30.6H243.238V81H230.278V52.92ZM266.306 71.64C268.85 71.64 271.73 71.16 274.946 70.2V65.88H264.506C263.786 65.88 263.186 66.12 262.706 66.6C262.226 67.08 261.986 67.68 261.986 68.4V69.12C261.986 69.84 262.226 70.44 262.706 70.92C263.186 71.4 263.786 71.64 264.506 71.64H266.306ZM252.986 43.56C261.77 42.6 269.69 42.12 276.746 42.12C280.01 42.12 282.626 43.104 284.594 45.072C286.562 47.04 287.546 49.656 287.546 52.92V81H276.386L275.666 77.4C273.41 78.888 271.082 79.992 268.682 80.712C266.33 81.384 264.338 81.72 262.706 81.72H260.186C256.922 81.72 254.306 80.736 252.338 78.768C250.37 76.8 249.386 74.184 249.386 70.92V67.68C249.386 64.416 250.37 61.8 252.338 59.832C254.306 57.864 256.922 56.88 260.186 56.88H274.946V54C274.946 53.28 274.706 52.68 274.226 52.2C273.746 51.72 273.146 51.48 272.426 51.48C269.306 51.48 265.85 51.624 262.058 51.912C258.314 52.2 255.29 52.416 252.986 52.56V43.56ZM327.486 52.56L307.686 71.28H327.486V81H291.846V71.28L311.646 52.56H291.846V42.84H327.486V52.56ZM366.018 52.56L346.218 71.28H366.018V81H330.378V71.28L350.178 52.56H330.378V42.84H366.018V52.56ZM409.949 70.2C409.949 73.8 408.917 76.632 406.853 78.696C404.837 80.712 402.029 81.72 398.429 81.72H381.869C378.269 81.72 375.437 80.712 373.373 78.696C371.357 76.632 370.349 73.8 370.349 70.2V53.64C370.349 50.04 371.357 47.232 373.373 45.216C375.437 43.152 378.269 42.12 381.869 42.12H398.429C402.029 42.12 404.837 43.152 406.853 45.216C408.917 47.232 409.949 50.04 409.949 53.64V70.2ZM397.349 54.72C397.349 52.8 396.389 51.84 394.469 51.84H385.829C383.909 51.84 382.949 52.8 382.949 54.72V69.12C382.949 71.04 383.909 72 385.829 72H394.469C396.389 72 397.349 71.04 397.349 69.12V54.72ZM435.86 81C432.644 81.48 429.572 81.72 426.644 81.72C423.764 81.72 421.34 80.736 419.372 78.768C417.404 76.8 416.42 74.184 416.42 70.92V30.6H429.02V69.12C429.02 69.84 429.26 70.44 429.74 70.92C430.22 71.4 430.82 71.64 431.54 71.64H435.86V81ZM456.009 71.64C458.553 71.64 461.433 71.16 464.649 70.2V65.88H454.209C453.489 65.88 452.889 66.12 452.409 66.6C451.929 67.08 451.689 67.68 451.689 68.4V69.12C451.689 69.84 451.929 70.44 452.409 70.92C452.889 71.4 453.489 71.64 454.209 71.64H456.009ZM442.689 43.56C451.473 42.6 459.393 42.12 466.449 42.12C469.713 42.12 472.329 43.104 474.297 45.072C476.265 47.04 477.249 49.656 477.249 52.92V81H466.089L465.369 77.4C463.113 78.888 460.785 79.992 458.385 80.712C456.033 81.384 454.041 81.72 452.409 81.72H449.889C446.625 81.72 444.009 80.736 442.041 78.768C440.073 76.8 439.089 74.184 439.089 70.92V67.68C439.089 64.416 440.073 61.8 442.041 59.832C444.009 57.864 446.625 56.88 449.889 56.88H464.649V54C464.649 53.28 464.409 52.68 463.929 52.2C463.449 51.72 462.849 51.48 462.129 51.48C459.009 51.48 455.553 51.624 451.761 51.912C448.017 52.2 444.993 52.416 442.689 52.56V43.56ZM482.269 70.2H495.229V81H482.269V70.2ZM515.766 51.12C513.846 51.12 512.886 52.08 512.886 54V57.96H525.126V54C525.126 52.08 524.166 51.12 522.246 51.12H515.766ZM536.286 80.28C527.022 81.24 518.622 81.72 511.086 81.72C507.822 81.72 505.206 80.736 503.238 78.768C501.27 76.8 500.286 74.184 500.286 70.92V53.64C500.286 50.04 501.294 47.232 503.31 45.216C505.374 43.152 508.206 42.12 511.806 42.12H526.206C529.806 42.12 532.614 43.152 534.63 45.216C536.694 47.232 537.726 50.04 537.726 53.64V66.96H512.886V69.84C512.886 70.56 513.126 71.16 513.606 71.64C514.086 72.12 514.686 72.36 515.406 72.36C520.158 72.36 527.118 72 536.286 71.28V80.28ZM570.818 81C566.162 81.48 561.602 81.72 557.138 81.72C553.874 81.72 551.258 80.736 549.29 78.768C547.322 76.8 546.338 74.184 546.338 70.92V52.56H542.018V42.84H546.338L547.778 34.2H558.938V42.84H567.938V52.56H558.938V69.12C558.938 69.84 559.178 70.44 559.658 70.92C560.138 71.4 560.738 71.64 561.458 71.64H570.818V81ZM588.489 43.56C593.145 42.6 597.225 42.12 600.729 42.12H603.969C607.233 42.12 609.849 43.104 611.817 45.072C613.785 47.04 614.769 49.656 614.769 52.92V81H602.169V54.36C602.169 53.64 601.929 53.04 601.449 52.56C600.969 52.08 600.369 51.84 599.649 51.84H597.129C595.305 51.84 593.625 51.936 592.089 52.128C590.601 52.32 589.401 52.464 588.489 52.56V81H575.889V30.6H588.489V43.56Z" fill="#2A4365"/>
</svg>
